<mxfile host="65bd71144e">
    <diagram id="7LIxXCbGdAymh-48TzNo" name="Page-1">
        <mxGraphModel dx="1972" dy="868" grid="0" gridSize="10" guides="1" tooltips="1" connect="1" arrows="1" fold="1" page="1" pageScale="1" pageWidth="850" pageHeight="1100" background="#FFFFFF" math="0" shadow="0">
            <root>
                <mxCell id="0"/>
                <mxCell id="1" parent="0"/>
                <mxCell id="39" value="" style="edgeStyle=none;html=1;fontFamily=Garamond;fontSize=14;" edge="1" parent="1" source="2">
                    <mxGeometry relative="1" as="geometry">
                        <mxPoint x="297" y="279.85168539325855" as="targetPoint"/>
                    </mxGeometry>
                </mxCell>
                <mxCell id="2" value="&lt;h1&gt;&lt;br&gt;&lt;/h1&gt;" style="rounded=1;whiteSpace=wrap;html=1;gradientColor=none;fillColor=none;strokeWidth=5;strokeColor=#171717;" vertex="1" parent="1">
                    <mxGeometry x="42" y="116" width="289" height="387" as="geometry"/>
                </mxCell>
                <mxCell id="13" style="edgeStyle=none;html=1;exitX=1;exitY=1;exitDx=0;exitDy=0;" edge="1" parent="1" source="3">
                    <mxGeometry relative="1" as="geometry">
                        <mxPoint x="700" y="390" as="targetPoint"/>
                    </mxGeometry>
                </mxCell>
                <mxCell id="3" value="" style="rounded=1;whiteSpace=wrap;html=1;strokeColor=#171717;strokeWidth=5;fillColor=none;gradientColor=none;" vertex="1" parent="1">
                    <mxGeometry x="503" y="110" width="190" height="284" as="geometry"/>
                </mxCell>
                <mxCell id="4" value="&lt;font style=&quot;font-size: 18px;&quot; color=&quot;#171717&quot;&gt;DATABASE&amp;nbsp;&lt;br&gt;Postgres&lt;/font&gt;" style="shape=cylinder3;whiteSpace=wrap;html=1;boundedLbl=1;backgroundOutline=1;size=15;strokeColor=#171717;strokeWidth=5;fillColor=none;gradientColor=none;rounded=1;" vertex="1" parent="1">
                    <mxGeometry x="503" y="554" width="167" height="260" as="geometry"/>
                </mxCell>
                <mxCell id="7" value="&lt;font style=&quot;font-size: 18px;&quot; color=&quot;#000000&quot;&gt;SERVER&lt;/font&gt;" style="rounded=1;whiteSpace=wrap;html=1;strokeColor=#171717;strokeWidth=5;fillColor=none;gradientColor=none;" vertex="1" parent="1">
                    <mxGeometry x="540" y="120" width="110" height="30" as="geometry"/>
                </mxCell>
                <mxCell id="8" value="&lt;font style=&quot;font-size: 18px;&quot; color=&quot;#000000&quot;&gt;Create TODO&lt;/font&gt;" style="rounded=1;whiteSpace=wrap;html=1;strokeColor=#171717;strokeWidth=5;fillColor=none;gradientColor=none;" vertex="1" parent="1">
                    <mxGeometry x="526.5" y="178" width="137" height="35" as="geometry"/>
                </mxCell>
                <mxCell id="12" style="edgeStyle=none;html=1;exitX=0.611;exitY=-0.144;exitDx=0;exitDy=0;exitPerimeter=0;" edge="1" parent="1">
                    <mxGeometry relative="1" as="geometry">
                        <mxPoint x="607.21" y="275.68000000000006" as="sourcePoint"/>
                        <mxPoint x="600.9696870925686" y="260.0000000000001" as="targetPoint"/>
                    </mxGeometry>
                </mxCell>
                <mxCell id="40" style="edgeStyle=none;html=1;exitX=0.5;exitY=1;exitDx=0;exitDy=0;fontFamily=Garamond;fontSize=14;" edge="1" parent="1" target="3">
                    <mxGeometry relative="1" as="geometry">
                        <mxPoint x="595" y="364" as="sourcePoint"/>
                    </mxGeometry>
                </mxCell>
                <mxCell id="14" value="&lt;font style=&quot;font-size: 18px;&quot; color=&quot;#000000&quot;&gt;HTTP&lt;/font&gt;" style="rounded=1;whiteSpace=wrap;html=1;strokeColor=#171717;strokeWidth=5;fillColor=none;gradientColor=none;" vertex="1" parent="1">
                    <mxGeometry x="340" y="60" width="120" height="40" as="geometry"/>
                </mxCell>
                <mxCell id="44" value="&lt;font color=&quot;#000000&quot; style=&quot;font-size: 18px;&quot;&gt;Frontend&lt;/font&gt;" style="rounded=1;whiteSpace=wrap;html=1;strokeColor=#171717;strokeWidth=5;fillColor=none;gradientColor=none;" vertex="1" parent="1">
                    <mxGeometry x="89.5" y="60" width="161" height="40" as="geometry"/>
                </mxCell>
                <mxCell id="45" value="&lt;font style=&quot;font-size: 18px;&quot; color=&quot;#000000&quot;&gt;Read all TODO&lt;/font&gt;" style="rounded=1;whiteSpace=wrap;html=1;strokeColor=#171717;strokeWidth=5;fillColor=none;gradientColor=none;" vertex="1" parent="1">
                    <mxGeometry x="526.5" y="225" width="137" height="35" as="geometry"/>
                </mxCell>
                <mxCell id="46" value="&lt;font style=&quot;font-size: 18px;&quot; color=&quot;#000000&quot;&gt;Update TODO&lt;/font&gt;" style="rounded=1;whiteSpace=wrap;html=1;strokeColor=#171717;strokeWidth=5;fillColor=none;gradientColor=none;" vertex="1" parent="1">
                    <mxGeometry x="526.5" y="275" width="137" height="35" as="geometry"/>
                </mxCell>
                <mxCell id="47" value="&lt;font style=&quot;font-size: 18px;&quot; color=&quot;#000000&quot;&gt;Delete TODO&lt;/font&gt;" style="rounded=1;whiteSpace=wrap;html=1;strokeColor=#171717;strokeWidth=5;fillColor=none;gradientColor=none;" vertex="1" parent="1">
                    <mxGeometry x="526.5" y="328" width="137" height="35" as="geometry"/>
                </mxCell>
                <mxCell id="55" value="" style="endArrow=classic;html=1;strokeColor=#171717;fontFamily=Garamond;fontSize=18;fontColor=#000000;fillColor=#000000;exitX=0.341;exitY=0.01;exitDx=0;exitDy=0;exitPerimeter=0;" edge="1" parent="1" source="4">
                    <mxGeometry width="50" height="50" relative="1" as="geometry">
                        <mxPoint x="588" y="444" as="sourcePoint"/>
                        <mxPoint x="560" y="411" as="targetPoint"/>
                    </mxGeometry>
                </mxCell>
                <mxCell id="56" value="" style="endArrow=classic;html=1;strokeColor=#171717;fontFamily=Garamond;fontSize=18;fontColor=#000000;fillColor=#000000;exitX=0.341;exitY=0.01;exitDx=0;exitDy=0;exitPerimeter=0;" edge="1" parent="1">
                    <mxGeometry width="50" height="50" relative="1" as="geometry">
                        <mxPoint x="626.05" y="404.4" as="sourcePoint"/>
                        <mxPoint x="625.9970000000001" y="549.9999999999999" as="targetPoint"/>
                    </mxGeometry>
                </mxCell>
                <mxCell id="58" value="Input ...." style="rounded=0;whiteSpace=wrap;html=1;fontFamily=Garamond;fontSize=18;fontColor=#171717;fillColor=#FFFFFF;strokeColor=#171717;" vertex="1" parent="1">
                    <mxGeometry x="58" y="136" width="255" height="33" as="geometry"/>
                </mxCell>
                <mxCell id="59" value="Submit" style="rounded=1;whiteSpace=wrap;html=1;strokeColor=#171717;fontFamily=Garamond;fontSize=18;fontColor=#171717;fillColor=#00CC00;" vertex="1" parent="1">
                    <mxGeometry x="233" y="136" width="78" height="31" as="geometry"/>
                </mxCell>
                <mxCell id="61" value="" style="shape=ext;double=1;rounded=0;whiteSpace=wrap;html=1;strokeColor=#171717;fontFamily=Garamond;fontSize=18;fontColor=#171717;fillColor=#FFFFFF;" vertex="1" parent="1">
                    <mxGeometry x="55" y="225" width="256" height="218" as="geometry"/>
                </mxCell>
                <mxCell id="62" value="TODO" style="shape=ext;double=1;rounded=0;whiteSpace=wrap;html=1;strokeColor=#171717;fontFamily=Garamond;fontSize=18;fontColor=#171717;fillColor=#FFFFFF;" vertex="1" parent="1">
                    <mxGeometry x="58" y="192" width="88.5" height="33" as="geometry"/>
                </mxCell>
                <mxCell id="69" value="" style="edgeStyle=none;html=1;strokeColor=#171717;fontFamily=Garamond;fontSize=18;fontColor=#171717;fillColor=#000000;" edge="1" parent="1" source="63" target="61">
                    <mxGeometry relative="1" as="geometry"/>
                </mxCell>
                <mxCell id="70" value="" style="edgeStyle=none;html=1;strokeColor=#171717;fontFamily=Garamond;fontSize=18;fontColor=#171717;fillColor=#000000;" edge="1" parent="1" source="63" target="61">
                    <mxGeometry relative="1" as="geometry"/>
                </mxCell>
                <mxCell id="63" value="EDIT" style="shape=ext;double=1;rounded=0;whiteSpace=wrap;html=1;strokeColor=#171717;fontFamily=Garamond;fontSize=18;fontColor=#171717;fillColor=#FFFFFF;" vertex="1" parent="1">
                    <mxGeometry x="149" y="192" width="88.5" height="33" as="geometry"/>
                </mxCell>
                <mxCell id="64" value="DELETE" style="shape=ext;double=1;rounded=0;whiteSpace=wrap;html=1;strokeColor=#171717;fontFamily=Garamond;fontSize=18;fontColor=#171717;fillColor=#FFFFFF;" vertex="1" parent="1">
                    <mxGeometry x="237.5" y="192" width="77.5" height="33" as="geometry"/>
                </mxCell>
                <mxCell id="67" value="DELETE" style="whiteSpace=wrap;html=1;fontSize=18;fontFamily=Garamond;fillColor=#FFFFFF;strokeColor=#171717;fontColor=#171717;rounded=0;" vertex="1" parent="1">
                    <mxGeometry x="372" y="329" width="93.25" height="34" as="geometry"/>
                </mxCell>
                <mxCell id="71" value="GET" style="whiteSpace=wrap;html=1;fontSize=18;fontFamily=Garamond;fillColor=#FFFFFF;strokeColor=#171717;fontColor=#171717;rounded=0;" vertex="1" parent="1">
                    <mxGeometry x="370" y="225" width="93.25" height="34" as="geometry"/>
                </mxCell>
                <mxCell id="72" value="PUT" style="whiteSpace=wrap;html=1;fontSize=18;fontFamily=Garamond;fillColor=#FFFFFF;strokeColor=#171717;fontColor=#171717;rounded=0;" vertex="1" parent="1">
                    <mxGeometry x="372" y="276" width="93.25" height="34" as="geometry"/>
                </mxCell>
                <mxCell id="73" value="POST" style="whiteSpace=wrap;html=1;fontSize=18;fontFamily=Garamond;fillColor=#FFFFFF;strokeColor=#171717;fontColor=#171717;rounded=0;" vertex="1" parent="1">
                    <mxGeometry x="366.75" y="178" width="93.25" height="34" as="geometry"/>
                </mxCell>
                <mxCell id="75" value="" style="edgeStyle=elbowEdgeStyle;elbow=horizontal;endArrow=classic;html=1;curved=0;rounded=0;endSize=8;startSize=8;strokeColor=#171717;fontFamily=Garamond;fontSize=18;fontColor=#171717;fillColor=#000000;entryX=0;entryY=0.5;entryDx=0;entryDy=0;" edge="1" parent="1" target="8">
                    <mxGeometry width="50" height="50" relative="1" as="geometry">
                        <mxPoint x="460" y="204" as="sourcePoint"/>
                        <mxPoint x="510" y="154" as="targetPoint"/>
                        <Array as="points">
                            <mxPoint x="476" y="-65"/>
                        </Array>
                    </mxGeometry>
                </mxCell>
                <mxCell id="77" value="" style="edgeStyle=elbowEdgeStyle;elbow=horizontal;endArrow=classic;html=1;curved=0;rounded=0;endSize=8;startSize=8;strokeColor=#171717;fontFamily=Garamond;fontSize=18;fontColor=#171717;fillColor=#000000;" edge="1" parent="1">
                    <mxGeometry width="50" height="50" relative="1" as="geometry">
                        <mxPoint x="363" y="180" as="sourcePoint"/>
                        <mxPoint x="313" y="150" as="targetPoint"/>
                        <Array as="points">
                            <mxPoint x="346" y="119"/>
                        </Array>
                    </mxGeometry>
                </mxCell>
                <mxCell id="79" value="" style="edgeStyle=elbowEdgeStyle;elbow=horizontal;endArrow=classic;html=1;curved=0;rounded=0;endSize=8;startSize=8;strokeColor=#171717;fontFamily=Garamond;fontSize=18;fontColor=#171717;fillColor=#000000;entryX=1;entryY=0.5;entryDx=0;entryDy=0;" edge="1" parent="1" target="64">
                    <mxGeometry width="50" height="50" relative="1" as="geometry">
                        <mxPoint x="370" y="349" as="sourcePoint"/>
                        <mxPoint x="320" y="319" as="targetPoint"/>
                        <Array as="points"/>
                    </mxGeometry>
                </mxCell>
                <mxCell id="80" value="" style="edgeStyle=segmentEdgeStyle;endArrow=classic;html=1;curved=0;rounded=0;endSize=8;startSize=8;strokeColor=#171717;fontFamily=Garamond;fontSize=18;fontColor=#171717;fillColor=#000000;exitX=0.75;exitY=1;exitDx=0;exitDy=0;" edge="1" parent="1" source="67">
                    <mxGeometry width="50" height="50" relative="1" as="geometry">
                        <mxPoint x="493" y="420" as="sourcePoint"/>
                        <mxPoint x="543" y="370" as="targetPoint"/>
                        <Array as="points">
                            <mxPoint x="442" y="408"/>
                            <mxPoint x="543" y="408"/>
                        </Array>
                    </mxGeometry>
                </mxCell>
                <mxCell id="81" value="" style="endArrow=classic;html=1;strokeColor=#171717;fontFamily=Garamond;fontSize=18;fontColor=#171717;fillColor=#000000;entryX=0;entryY=0.5;entryDx=0;entryDy=0;" edge="1" parent="1" target="45">
                    <mxGeometry width="50" height="50" relative="1" as="geometry">
                        <mxPoint x="463.25" y="254" as="sourcePoint"/>
                        <mxPoint x="563.25" y="150" as="targetPoint"/>
                    </mxGeometry>
                </mxCell>
                <mxCell id="83" value="" style="endArrow=classic;html=1;strokeColor=#171717;fontFamily=Garamond;fontSize=18;fontColor=#171717;fillColor=#000000;" edge="1" parent="1">
                    <mxGeometry width="50" height="50" relative="1" as="geometry">
                        <mxPoint x="377" y="246" as="sourcePoint"/>
                        <mxPoint x="199" y="271" as="targetPoint"/>
                    </mxGeometry>
                </mxCell>
                <mxCell id="85" value="" style="edgeStyle=elbowEdgeStyle;elbow=vertical;endArrow=classic;html=1;curved=0;rounded=0;endSize=8;startSize=8;strokeColor=#171717;fontFamily=Garamond;fontSize=18;fontColor=#171717;fillColor=#000000;entryX=0;entryY=0.5;entryDx=0;entryDy=0;exitX=0.5;exitY=0;exitDx=0;exitDy=0;" edge="1" parent="1" source="61" target="72">
                    <mxGeometry width="50" height="50" relative="1" as="geometry">
                        <mxPoint x="263" y="276" as="sourcePoint"/>
                        <mxPoint x="213" y="326" as="targetPoint"/>
                        <Array as="points">
                            <mxPoint x="346" y="293"/>
                            <mxPoint x="355" y="260"/>
                            <mxPoint x="355" y="273"/>
                        </Array>
                    </mxGeometry>
                </mxCell>
                <mxCell id="86" value="" style="endArrow=classic;html=1;strokeColor=#171717;fontFamily=Garamond;fontSize=18;fontColor=#171717;fillColor=#000000;" edge="1" parent="1">
                    <mxGeometry width="50" height="50" relative="1" as="geometry">
                        <mxPoint x="474" y="292" as="sourcePoint"/>
                        <mxPoint x="526.5" y="292.09000000000003" as="targetPoint"/>
                        <Array as="points">
                            <mxPoint x="478.5" y="292.09000000000003"/>
                        </Array>
                    </mxGeometry>
                </mxCell>
                <mxCell id="87" value="NEW TASK ..." style="shape=ext;double=1;rounded=1;whiteSpace=wrap;html=1;strokeColor=#171717;fontFamily=Garamond;fontSize=18;fontColor=#171717;fillColor=#FFFFFF;" vertex="1" parent="1">
                    <mxGeometry x="58" y="239" width="120" height="25" as="geometry"/>
                </mxCell>
                <mxCell id="88" value="NEW TASK ..." style="shape=ext;double=1;rounded=1;whiteSpace=wrap;html=1;strokeColor=#171717;fontFamily=Garamond;fontSize=18;fontColor=#171717;fillColor=#FFFFFF;" vertex="1" parent="1">
                    <mxGeometry x="58" y="278" width="120" height="25" as="geometry"/>
                </mxCell>
                <mxCell id="89" value="NEW TASK ..." style="shape=ext;double=1;rounded=1;whiteSpace=wrap;html=1;strokeColor=#171717;fontFamily=Garamond;fontSize=18;fontColor=#171717;fillColor=#FFFFFF;" vertex="1" parent="1">
                    <mxGeometry x="58" y="317" width="120" height="25" as="geometry"/>
                </mxCell>
            </root>
        </mxGraphModel>
    </diagram>
</mxfile>